# xmcd
#
# Track frame offsets:
#	150
#	22247
#	39320
#	56732
#	77867
#	97365
#	124105
#	143397
#	169485
#	195917
#	213114
#	236109
#	257809
#	272361
#	294829
#
# Disc length: 4258 seconds
#
# Revision: 0
# Processed by: cddbd v1.5.2PL0 Copyright (c) Steve Scherf et al.
# Submitted via: EasyCDDAExtractor 11.9.9.666
#
DISCID=d610a00f
DTITLE=Cowboy Junkies - One Soul Now
DYEAR=1900
DGENRE=
TTITLE0=One soul now
TTITLE1=Why this one
TTITLE2=My wild child
TTITLE3=From hunting ground to city
TTITLE4=The stars of our stars
TTITLE5=Notes falling slow
TTITLE6=No long journey home
TTITLE7=He will call you baby
TTITLE8=Simon keeper
TTITLE9=The slide
TTITLE10=Thunder road
TTITLE11=Seventeen seconds
TTITLE12=Lungs
TTITLE13=Darkness, darkness
TTITLE14=Helpless
EXTD=
EXTT0=
EXTT1=
EXTT2=
EXTT3=
EXTT4=
EXTT5=
EXTT6=
EXTT7=
EXTT8=
EXTT9=
EXTT10=
EXTT11=
EXTT12=
EXTT13=
EXTT14=
PLAYORDER=
